:SAMPLES-PER-SECOND 30
:FULLY-SPECIFIED
:DEGREES
49
root  -21.6729 45.1199 -2.43683 -158.45 86.6148 -167.853
RightUpLeg  -28.1823 6.30085 1.85299
RightLeg  15.0068 7.27888 -0.394178
RightFoot  21.2998 -1.43393 4.60316
RightToes  3.49245e-010 -3.18055e-015 8.94531e-016
Spine  3.11035 -0.983924 3.37616
Spine1  8.95972 -0.720406 -0.638234
HEad  -30.0097 -0.204302 2.73356
LeftShoulder1  0 -2.69403e-036 -1.28585e-037
LeftArm  26.1071 54.9636 -78.3717
LeftForeArm  -46.1189 -24.6152 14.2189
LeftHand  1.00561 7.29864 -5.83853
RightShoulder  -2.48481e-017 0 -8.08114e-019
RightArm  40.6084 -54.7759 83.2017
RightForeArm  -51.2648 21.9738 -21.02
RightHand  1.08621 -10.2773 -2.32257
LeftUpLeg  -23.6275 -4.16357 -2.32312
LeftLeg  7.00839 -4.58786 0.871747
LeftFoot  19.4202 3.22859 -10.7292
LeftToes  2.65573e-010 7.17151e-011 4.62952e-011
50
root  -20.0166 42.9683 -2.42362 -146.018 86.5524 -156.335
RightUpLeg  -32.1538 9.20105 1.76248
RightLeg  19.9883 6.8398 -0.894912
RightFoot  24.2801 -1.12325 3.29289
RightToes  3.49245e-010 -3.18055e-015 8.94531e-016
Spine  4.25228 -0.861357 4.22573
Spine1  7.6854 -0.553814 -0.648855
HEad  -32.829 0.0555868 2.0748
LeftShoulder1  0 -2.69403e-036 -1.28585e-037
LeftArm  24.9607 53.1595 -78.8192
LeftForeArm  -47.6144 -24.6682 14.17
LeftHand  0.963513 6.87527 -4.67076
RightShoulder  -2.48481e-017 0 -8.08114e-019
RightArm  40.2843 -53.3146 82.8138
RightForeArm  -52.1085 22.2555 -21.1479
RightHand  1.06674 -10.3132 -1.63002
LeftUpLeg  -28.6701 -6.33977 -0.696641
LeftLeg  12.6822 -4.97288 1.20897
LeftFoot  19.2332 3.60996 -12.0861
LeftToes  2.65573e-010 7.17151e-011 4.62952e-011
51
root  -18.3698 40.4409 -2.37723 -139.512 86.2742 -148.878
RightUpLeg  -34.875 11.0981 2.32562
RightLeg  30.5747 8.43395 -0.807924
RightFoot  20.3183 -0.786594 2.59517
RightToes  3.49245e-010 -3.18055e-015 8.94531e-016
Spine  6.68771 -1.0965 4.52554
Spine1  7.04981 -0.711755 -0.692932
HEad  -36.5046 0.696996 1.54753
LeftShoulder1  0 -2.69403e-036 -1.28585e-037
LeftArm  21.4896 49.0098 -78.7964
LeftForeArm  -43.8508 -23.3031 10.296
LeftHand  0.892565 6.18341 -4.25877
RightShoulder  -2.48481e-017 0 -8.08114e-019
RightArm  44.1801 -49.6191 83.2665
RightForeArm  -54.5912 21.5763 -20.1872
RightHand  1.0264 -10.0762 -1.21257
LeftUpLeg  -32.6423 -8.9327 1.16921
LeftLeg  23.1474 -7.43497 0.752682
LeftFoot  13.9879 2.32489 -9.34604
LeftToes  2.65573e-010 7.17151e-011 4.62952e-011
52
root  -16.7184 37.8307 -2.30847 -152.193 85.7587 -160.475
RightUpLeg  -36.4555 9.81014 2.83496
RightLeg  43.994 10.5472 0.442905
RightFoot  4.35395 -0.100595 0.645285
RightToes  3.49245e-010 -3.18055e-015 8.94531e-016
Spine  8.75684 -1.78625 3.24971
Spine1  5.99675 -1.39369 -0.698071
HEad  -38.5311 0.901646 1.54736
LeftShoulder1  0 -2.69403e-036 -1.28585e-037
LeftArm  10.4468 42.8038 -77.9231
LeftForeArm  -29.216 -18.2373 1.24676
LeftHand  0.829538 5.70631 -3.24524
RightShoulder  -2.48481e-017 0 -8.08114e-019
RightArm  44.6529 -44.6542 84.3358
RightForeArm  -49.4616 20.952 -14.9216
RightHand  1.08804 -10.2397 -2.51079
LeftUpLeg  -36.1282 -10.9527 0.656727
LeftLeg  36.9938 -9.70174 0.711026
LeftFoot  0.519018 0.413846 -3.37768
LeftToes  2.65573e-010 7.17151e-011 4.62952e-011
53
root  -15.0816 35.5531 -2.24737 -165.414 84.7976 -174.395
RightUpLeg  -38.0168 6.67952 3.08294
RightLeg  55.1321 11.209 1.29788
RightFoot  -14.9498 -0.0471721 -3.26908
RightToes  3.49245e-010 -3.18055e-015 8.94531e-016
Spine  10.068 -2.30871 1.36511
Spine1  3.1772 -2.15227 -0.0608424
HEad  -38.8114 0.0956541 1.8904
LeftShoulder1  0 -2.69403e-036 -1.28585e-037
LeftArm  0.644727 36.899 -77.8983
LeftForeArm  -18.6469 -11.9975 -4.2035
LeftHand  0.785603 5.73563 -0.140199
RightShoulder  -2.48481e-017 0 -8.08114e-019
RightArm  38.6685 -40.567 84.7273
RightForeArm  -38.6265 19.8785 -8.26119
RightHand  1.32839 -11.4414 -4.61915
LeftUpLeg  -40.133 -13.6061 -0.450396
LeftLeg  49.88 -8.53615 3.73196
LeftFoot  -14.6024 -0.0368668 0.608056
LeftToes  2.65573e-010 7.17151e-011 4.62952e-011
54
root  -13.488 34.2958 -2.20451 -163.346 84.5242 -174.225
RightUpLeg  -38.8458 4.57069 4.15114
RightLeg  60.3915 10.9452 0.885171
RightFoot  -25.8465 -0.7792 -7.05751
RightToes  3.49245e-010 -3.18055e-015 8.94531e-016
Spine  11.6278 -2.15446 0.718951
Spine1  -0.694645 -2.21588 1.02939
HEad  -40.4398 -0.858916 2.1585
LeftShoulder1  0 -2.69403e-036 -1.28585e-037
LeftArm  -2.47909 33.4313 -79.2115
LeftForeArm  -17.4658 -11.5607 -4.18431
LeftHand  0.692839 5.51748 3.51696
RightShoulder  -2.48481e-017 0 -8.08114e-019
RightArm  32.5198 -38.6174 83.7166
RightForeArm  -33.5762 19.0844 -6.15439
RightHand  1.52476 -12.4935 -5.49992
LeftUpLeg  -42.8567 -15.4415 -0.411881
LeftLeg  57.2297 -7.21539 7.91239
LeftFoot  -23.535 -0.02158 0.54156
LeftToes  2.65573e-010 7.17151e-011 4.62952e-011
55
root  -11.7994 34.5007 -2.15336 -152.202 85.4316 -164.03
RightUpLeg  -36.0284 4.44586 5.47446
RightLeg  59.0249 11.024 1.02878
RightFoot  -26.6557 -0.967898 -8.21936
RightToes  3.49245e-010 -3.18055e-015 8.94531e-016
Spine  12.6156 -1.51672 0.755363
Spine1  -2.80701 -1.6294 1.47539
HEad  -43.6177 -0.72603 2.34504
LeftShoulder1  0 -2.69403e-036 -1.28585e-037
LeftArm  5.90039 33.1478 -80.8803
LeftForeArm  -26.4022 -17.403 0.553462
LeftHand  0.578531 5.00025 4.74506
RightShoulder  -2.48481e-017 0 -8.08114e-019
RightArm  34.231 -38.7105 82.4406
RightForeArm  -40.0225 20.0183 -9.72847
RightHand  1.53276 -12.6464 -5.23338
LeftUpLeg  -40.6362 -15.9109 0.307112
LeftLeg  57.0246 -6.20407 9.60643
LeftFoot  -25.3819 -0.252124 -1.68645
LeftToes  2.65573e-010 7.17151e-011 4.62952e-011
